<svg id="Layer_1" data-name="Layer 1" xmlns="http://www.w3.org/2000/svg" viewBox="0 0 32 32"><defs><style>.cls-1{fill:#33c0e1;}</style></defs><title>td-icon-language</title><path class="cls-1" d="M18.14,16.3l-.55-.55L20,13.3h6a.39.39,0,0,0,.39-.39V5.12A.39.39,0,0,0,26,4.73H13.58a.39.39,0,0,0-.39.39v3.5h-.78V5.12A1.17,1.17,0,0,1,13.58,4H26a1.17,1.17,0,0,1,1.17,1.17v7.79A1.17,1.17,0,0,1,26,14.08H20.36Z"/><rect class="cls-1" x="17.86" y="8.62" width="0.78" height="0.78"/><rect class="cls-1" x="19.42" y="8.62" width="0.78" height="0.78"/><rect class="cls-1" x="20.98" y="8.62" width="0.78" height="0.78"/><path class="cls-1" d="M4.62,28.87H3.84V26.15c0-3.12,1.73-3.78,3.56-4.47a14.26,14.26,0,0,0,2.08-.93l.39.68a15.11,15.11,0,0,1-2.19,1c-1.84.7-3.06,1.16-3.06,3.75Z"/><path class="cls-1" d="M21.75,28.87H21V26.15c0-2.58-1.22-3-3.06-3.75a15.11,15.11,0,0,1-2.19-1l.39-.68a14.26,14.26,0,0,0,2.08.93c1.83.7,3.56,1.35,3.56,4.47Z"/><path class="cls-1" d="M14.43,23.12,12.8,22.3l-1.63.82-2-2,1.1-1.64,2.52.42,2.52-.42,1.1,1.64ZM12.8,21.43l1.48.74L15.41,21l-.46-.69-2.15.36-2.15-.36-.46.69,1.13,1.13Z"/><rect class="cls-1" x="14.36" y="18.36" width="0.78" height="1.56"/><rect class="cls-1" x="10.46" y="18.36" width="0.78" height="1.56"/><rect class="cls-1" x="12.41" y="24.98" width="0.78" height="0.78"/><rect class="cls-1" x="12.41" y="23.42" width="0.78" height="0.78"/><path class="cls-1" d="M12.8,19.14a5.56,5.56,0,0,1-2.12-.43l0,0c-.05,0-1.32-.91-1.73-3.77V13.3h.78v1.53c.34,2.3,1.25,3.1,1.37,3.2a4.72,4.72,0,0,0,3.49,0c.12-.1,1-.9,1.37-3.2V13.3h.78v1.61C16.28,17.77,15,18.65,15,18.68l0,0A5.56,5.56,0,0,1,12.8,19.14Z"/><path class="cls-1" d="M16.69,13.3h-.78c0-2.15-1-3.12-3.12-3.12s-3.12,1-3.12,3.12H8.9c0-2.58,1.31-3.89,3.89-3.89S16.69,10.71,16.69,13.3Z"/><polygon class="cls-1" points="14.76 14.5 10.87 12.94 9.47 13.64 9.12 12.95 10.83 12.09 14.73 13.65 16.13 12.95 16.48 13.64 14.76 14.5"/><rect class="cls-1" x="6.96" y="26.54" width="0.78" height="2.34"/><rect class="cls-1" x="17.86" y="26.54" width="0.78" height="2.34"/></svg>