<svg id="Layer_1" data-name="Layer 1" xmlns="http://www.w3.org/2000/svg" viewBox="0 0 32 32"><defs><style>.cls-1{fill:#fff;}.cls-2{fill:#33c0e1;}</style></defs><title>td-icon-location</title><circle class="cls-1" cx="16.37" cy="16.62" r="11.65"/><path class="cls-2" d="M16.37,28.67a12,12,0,1,1,12-12A12.06,12.06,0,0,1,16.37,28.67Zm0-23.3A11.25,11.25,0,1,0,27.61,16.62,11.26,11.26,0,0,0,16.37,5.37Z"/><path class="cls-2" d="M16.37,28.67c-2.83,0-6.43-5.67-6.43-12s3.59-12,6.43-12,6.43,5.67,6.43,12S19.2,28.67,16.37,28.67Zm0-23.3c-2.17,0-5.62,5.15-5.62,11.25s3.45,11.25,5.62,11.25S22,22.72,22,16.62,18.54,5.37,16.37,5.37Z"/><rect class="cls-2" x="15.97" y="4.97" width="0.8" height="23.3"/><rect class="cls-2" x="4.72" y="16.22" width="23.3" height="0.8"/><path class="cls-2" d="M16.37,11C9.8,11,8.07,8.51,8,8.4L8.67,8s1.62,2.23,7.7,2.23S24.05,8,24.07,8l.67.45C24.67,8.51,22.93,11,16.37,11Z"/><path class="cls-2" d="M24.07,25.28S22.44,23,16.37,23s-7.68,2.21-7.7,2.23L8,24.83c.07-.11,1.8-2.59,8.37-2.59s8.3,2.48,8.37,2.59Z"/><circle class="cls-1" cx="21.19" cy="10.19" r="1.61"/><path class="cls-2" d="M21.19,12.2a2,2,0,1,1,2-2A2,2,0,0,1,21.19,12.2Zm0-3.21a1.2,1.2,0,1,0,1.2,1.2A1.21,1.21,0,0,0,21.19,9Z"/><circle class="cls-1" cx="11.55" cy="23.04" r="1.61"/><path class="cls-2" d="M11.55,25.05a2,2,0,1,1,2-2A2,2,0,0,1,11.55,25.05Zm0-3.21a1.2,1.2,0,1,0,1.2,1.2A1.21,1.21,0,0,0,11.55,21.84Z"/></svg>